# xmcd
#
# Track frame offsets: 
#        150
#        15115
#        31867
#        49052
#        64782
#        80000
#        95415
#        110617
#        126847
#        146445
#        162215
#        178982
#
# Disc length: 2642 seconds
#
# Revision: 0
# Processed by: cddbd v1.5.1PL2 Copyright (c) Steve Scherf et al.
# Submitted via: ExactAudioCopy v0.95b4
#
DISCID=980a500c
DTITLE=เวอร์ชั่น 2 - รวมเพลงฮิต จากมิวสิควีดีโฮ
DYEAR=2000
DGENRE=Country
TTITLE0=ใจอ่อน
TTITLE1=น้ำตาคนเลว
TTITLE2=โปรดพิจารณา
TTITLE3=ดอกไม้ในป่าช้า
TTITLE4=สามเสี่ย
TTITLE5=ในฝัน
TTITLE6=มือที่สาม
TTITLE7=ยังรักเธอ
TTITLE8=ลืมไม่ลง
TTITLE9=ไม่รักไม่ว่า
TTITLE10=เขามีอะไรกันแล้ว
TTITLE11=รับเดนคนดัง
EXTD=
EXTT0=
EXTT1=
EXTT2=
EXTT3=
EXTT4=
EXTT5=
EXTT6=
EXTT7=
EXTT8=
EXTT9=
EXTT10=
EXTT11=
PLAYORDER=
